<svg version="1.1" xmlns="http://www.w3.org/2000/svg" style="display: block;" viewBox="0 0 2048 720" width="1935" height="680" preserveAspectRatio="none">
<defs>
	<linearGradient id="Gradient1" gradientUnits="userSpaceOnUse" x1="1323.57" y1="320.175" x2="1514.7" y2="252.545">
		<stop class="stop0" offset="0" stop-opacity="1" stop-color="rgb(161,30,252)"/>
		<stop class="stop1" offset="1" stop-opacity="1" stop-color="rgb(211,28,252)"/>
	</linearGradient>
	<linearGradient id="Gradient2" gradientUnits="userSpaceOnUse" x1="540.38" y1="268.167" x2="578.845" y2="118.502">
		<stop class="stop0" offset="0" stop-opacity="1" stop-color="rgb(255,102,1)"/>
		<stop class="stop1" offset="1" stop-opacity="1" stop-color="rgb(255,192,2)"/>
	</linearGradient>
	<linearGradient id="Gradient3" gradientUnits="userSpaceOnUse" x1="1618.09" y1="413.889" x2="1612.7" y2="210.584">
		<stop class="stop0" offset="0" stop-opacity="1" stop-color="rgb(255,90,1)"/>
		<stop class="stop1" offset="1" stop-opacity="1" stop-color="rgb(255,125,1)"/>
	</linearGradient>
	<linearGradient id="Gradient4" gradientUnits="userSpaceOnUse" x1="977.188" y1="419.362" x2="809.296" y2="202.264">
		<stop class="stop0" offset="0" stop-opacity="1" stop-color="rgb(1,67,254)"/>
		<stop class="stop1" offset="1" stop-opacity="1" stop-color="rgb(0,97,254)"/>
	</linearGradient>
	<linearGradient id="Gradient5" gradientUnits="userSpaceOnUse" x1="1876.68" y1="256.772" x2="1876.34" y2="411.228">
		<stop class="stop0" offset="0" stop-opacity="1" stop-color="rgb(104,177,0)"/>
		<stop class="stop1" offset="1" stop-opacity="1" stop-color="rgb(0,156,30)"/>
	</linearGradient>
	<linearGradient id="Gradient6" gradientUnits="userSpaceOnUse" x1="101.778" y1="142.557" x2="187.594" y2="176.123">
		<stop class="stop0" offset="0" stop-opacity="1" stop-color="rgb(0,106,254)"/>
		<stop class="stop1" offset="1" stop-opacity="1" stop-color="rgb(43,75,255)"/>
	</linearGradient>
	<linearGradient id="Gradient7" gradientUnits="userSpaceOnUse" x1="413.629" y1="307.421" x2="246.176" y2="267.685">
		<stop class="stop0" offset="0" stop-opacity="1" stop-color="rgb(226,33,251)"/>
		<stop class="stop1" offset="1" stop-opacity="1" stop-color="rgb(115,51,253)"/>
	</linearGradient>
	<linearGradient id="Gradient8" gradientUnits="userSpaceOnUse" x1="275.395" y1="231.672" x2="168.855" y2="211.438">
		<stop class="stop0" offset="0" stop-opacity="1" stop-color="rgb(128,47,254)"/>
		<stop class="stop1" offset="1" stop-opacity="1" stop-color="rgb(42,74,255)"/>
	</linearGradient>
	<linearGradient id="Gradient9" gradientUnits="userSpaceOnUse" x1="170.206" y1="544.293" x2="138.25" y2="590.74">
		<stop class="stop0" offset="0" stop-opacity="1" stop-color="rgb(0,173,247)"/>
		<stop class="stop1" offset="1" stop-opacity="1" stop-color="rgb(1,206,254)"/>
	</linearGradient>
	<linearGradient id="Gradient10" gradientUnits="userSpaceOnUse" x1="225.358" y1="337.965" x2="106.851" y2="508.49">
		<stop class="stop0" offset="0" stop-opacity="1" stop-color="rgb(0,27,191)"/>
		<stop class="stop1" offset="1" stop-opacity="1" stop-color="rgb(0,171,253)"/>
	</linearGradient>
	<linearGradient id="Gradient11" gradientUnits="userSpaceOnUse" x1="614.518" y1="573.834" x2="490.922" y2="478.887">
		<stop class="stop0" offset="0" stop-opacity="1" stop-color="rgb(255,154,0)"/>
		<stop class="stop1" offset="1" stop-opacity="1" stop-color="rgb(255,84,119)"/>
	</linearGradient>
	<linearGradient id="Gradient12" gradientUnits="userSpaceOnUse" x1="603.481" y1="294.75" x2="569.828" y2="332.432">
		<stop class="stop0" offset="0" stop-opacity="1" stop-color="rgb(95,193,3)"/>
		<stop class="stop1" offset="1" stop-opacity="1" stop-color="rgb(48,166,18)"/>
	</linearGradient>
	<linearGradient id="Gradient13" gradientUnits="userSpaceOnUse" x1="596.382" y1="345.295" x2="533.81" y2="413.941">
		<stop class="stop0" offset="0" stop-opacity="1" stop-color="rgb(50,174,18)"/>
		<stop class="stop1" offset="1" stop-opacity="1" stop-color="rgb(0,102,39)"/>
	</linearGradient>
	<linearGradient id="Gradient14" gradientUnits="userSpaceOnUse" x1="511.248" y1="462.68" x2="352.646" y2="362.081">
		<stop class="stop0" offset="0" stop-opacity="1" stop-color="rgb(255,81,129)"/>
		<stop class="stop1" offset="1" stop-opacity="1" stop-color="rgb(214,24,255)"/>
	</linearGradient>
</defs>
<path transform="translate(0,0)" fill="url(#Gradient14)" d="M 473.91 266.487 C 484.371 268.027 496.265 270.512 506.699 272.492 C 550.854 278.656 588.011 267.707 622.097 310.705 C 641.102 334.678 640.86 359.432 640.203 388.174 C 640.63 428.143 641.112 473.871 640.202 513.724 C 640.004 538.765 632.042 559.733 613.931 577.492 C 596.629 594.502 573.199 603.818 548.941 603.333 C 520.839 603.045 493.6 589.41 475.374 568.879 C 466.655 559.058 442.432 536.28 435.976 527.156 C 432.612 524.861 409.061 499.876 403.766 494.382 L 363.756 452.861 C 356.757 445.604 346.84 435.885 340.558 428.256 C 340.471 428.028 339.14 424.417 339.144 424.344 C 340.191 401.21 356.22 362.124 367.849 344.124 C 379.034 326.814 383.782 324.152 390.951 309.128 C 392.25 309.555 392.542 309.405 393.854 309.152 C 396.424 304.376 394.965 299.018 396.758 293.537 C 401.393 279.371 411.813 293.862 421.462 288.397 C 439.157 306.617 456.731 324.952 474.186 343.402 L 473.91 266.487 z"/>
<path transform="translate(0,0)" fill="url(#Gradient13)" d="M 473.91 266.487 C 484.371 268.027 496.265 270.512 506.699 272.492 C 550.854 278.656 588.011 267.707 622.097 310.705 C 641.102 334.678 640.86 359.432 640.203 388.174 C 640.63 428.143 641.112 473.871 640.202 513.724 C 614.364 489.685 588.69 460.395 563.4 435.409 C 557.719 429.797 539.355 409.682 534.043 405.857 C 530.918 401.322 518.349 388.838 513.955 384.33 C 500.627 370.758 487.37 357.115 474.186 343.402 L 473.91 266.487 z"/>
<path transform="translate(0,0)" fill="url(#Gradient12)" d="M 506.699 272.492 C 550.854 278.656 588.011 267.707 622.097 310.705 C 641.102 334.678 640.86 359.432 640.203 388.174 C 639.525 387.175 621.002 368.261 619.859 367.446 C 583.775 341.716 553.154 308.35 516.774 283.424 C 511.737 279.973 507.638 279.74 504.666 273.519 L 506.699 272.492 z"/>
<path transform="translate(0,0)" fill="url(#Gradient11)" d="M 534.043 405.857 C 539.355 409.682 557.719 429.797 563.4 435.409 C 588.69 460.395 614.364 489.685 640.202 513.724 C 640.004 538.765 632.042 559.733 613.931 577.492 C 596.629 594.502 573.199 603.818 548.941 603.333 C 520.839 603.045 493.6 589.41 475.374 568.879 C 466.655 559.058 442.432 536.28 435.976 527.156 C 440.336 528.626 446.83 536.268 450.222 539.917 C 453.047 536.981 455.695 532.972 458.579 529.888 C 491.103 495.121 515.711 456.173 540.705 415.7 C 538.059 412.568 534.279 409.281 534.043 405.857 z"/>
<path transform="translate(0,0)" fill="url(#Gradient10)" d="M 84.0176 220.631 C 82.4427 202.948 84.0454 183.336 90.5267 166.831 L 138.363 216.432 C 145.852 224.283 158.265 238.116 165.771 244.738 C 172.227 252.744 183.402 263.832 190.811 271.51 L 233.639 315.865 C 239.337 321.793 249.008 331.411 253.911 337.572 L 253.929 445.197 C 253.926 462.026 254.531 484.175 253.781 500.508 L 253.849 587.827 L 253.903 603.904 C 248.644 603.146 243.926 603.367 238.671 603.465 C 192.372 604.322 143.668 608.901 109.437 570.414 C 93.7543 552.78 82.8908 528.526 83.9025 504.647 C 83.2516 493.144 83.5926 480.062 83.6975 468.49 C 84.4459 385.973 82.6138 303.102 84.0176 220.631 z"/>
<path transform="translate(0,0)" fill="rgb(0,22,173)" d="M 84.0176 220.631 C 82.4427 202.948 84.0454 183.336 90.5267 166.831 L 138.363 216.432 C 145.852 224.283 158.265 238.116 165.771 244.738 C 172.227 252.744 183.402 263.832 190.811 271.51 L 233.639 315.865 C 239.337 321.793 249.008 331.411 253.911 337.572 L 253.929 445.197 C 253.926 462.026 254.531 484.175 253.781 500.508 C 252.512 489.532 253.498 472.847 253.143 461.283 C 252.14 428.691 254.317 391.714 252.279 359.562 C 251.654 360.106 251.662 360.079 250.973 360.503 C 244.572 358.164 233.258 354.405 227.871 350.866 C 223.807 348.197 217.836 341.66 213.188 338.444 C 190.266 322.584 170.175 303.367 147.716 286.759 C 142.005 282.537 133.694 274.195 128.511 270.627 C 110.265 258.066 102.117 258.766 85.4904 242.453 C 85.5672 235.65 86.0772 226.918 84.0176 220.631 z"/>
<path transform="translate(0,0)" fill="url(#Gradient9)" d="M 83.9025 504.647 C 84.924 501.064 85.2768 499.703 85.6149 496.014 L 87.0249 494.477 C 128.213 515.474 168.133 548.786 207.373 574.072 C 221.584 583.23 239.987 591.175 252 602.382 C 251.939 599.059 251.307 589.017 252.648 586.689 L 253.849 587.827 L 253.903 603.904 C 248.644 603.146 243.926 603.367 238.671 603.465 C 192.372 604.322 143.668 608.901 109.437 570.414 C 93.7543 552.78 82.8908 528.526 83.9025 504.647 z"/>
<path transform="translate(0,0)" fill="url(#Gradient8)" d="M 90.5267 166.831 C 111.127 118.115 172.01 100.342 220.325 113.112 C 238.729 116.067 262.128 128.89 276.647 140.297 C 293.438 153.107 315.518 177.754 330.898 193.797 L 421.462 288.397 C 411.813 293.862 401.393 279.371 396.758 293.537 C 394.965 299.018 396.424 304.376 393.854 309.152 C 392.542 309.405 392.25 309.555 390.951 309.128 C 383.782 324.152 379.034 326.814 367.849 344.124 C 356.22 362.124 340.191 401.21 339.144 424.344 C 339.14 424.417 340.471 428.028 340.558 428.256 C 324.166 412.315 307.114 393.166 291.014 376.618 C 283.285 368.673 264.533 349.679 258.735 342.059 L 253.911 337.572 C 249.008 331.411 239.337 321.793 233.639 315.865 L 190.811 271.51 C 183.402 263.832 172.227 252.744 165.771 244.738 C 158.265 238.116 145.852 224.283 138.363 216.432 L 90.5267 166.831 z"/>
<path transform="translate(0,0)" fill="url(#Gradient7)" d="M 276.647 140.297 C 293.438 153.107 315.518 177.754 330.898 193.797 L 421.462 288.397 C 411.813 293.862 401.393 279.371 396.758 293.537 C 394.965 299.018 396.424 304.376 393.854 309.152 C 392.542 309.405 392.25 309.555 390.951 309.128 C 383.782 324.152 379.034 326.814 367.849 344.124 C 356.22 362.124 340.191 401.21 339.144 424.344 C 339.14 424.417 340.471 428.028 340.558 428.256 C 324.166 412.315 307.114 393.166 291.014 376.618 C 283.285 368.673 264.533 349.679 258.735 342.059 C 254.639 330.381 258.245 329.116 259.407 317.738 C 262.182 290.55 265.691 264.393 265.524 236.958 C 265.488 231.182 267.16 223.494 267.87 217.627 C 269.588 203.419 275.739 190.108 278.098 176.154 C 280.154 164.239 274.795 152.014 276.647 140.297 z"/>
<path transform="translate(0,0)" fill="url(#Gradient6)" d="M 90.5267 166.831 C 111.127 118.115 172.01 100.342 220.325 113.112 C 216.1 113.196 211.772 112.634 208.654 114.773 C 205.661 120.188 205.709 126.101 203.263 130.555 C 187.881 158.566 177.793 187.862 170.027 218.828 C 167.607 228.478 163.035 234.681 165.771 244.738 C 158.265 238.116 145.852 224.283 138.363 216.432 L 90.5267 166.831 z"/>
<path transform="translate(0,0)" fill="url(#Gradient5)" d="M 1938.06 209.165 L 1981.03 209.15 C 1981.25 228.907 1981.21 248.666 1980.91 268.422 C 1981.75 279.704 1981.08 303.859 1981.1 316.131 L 1981.06 413.247 C 1966.56 413.507 1952.05 413.542 1937.54 413.353 C 1936.86 372.213 1936.93 326.481 1937.58 285.401 C 1923.62 307.897 1908.01 329.745 1893.93 352.225 C 1888.66 360.641 1882.97 369.294 1877.08 377.261 C 1871.33 370.574 1860.41 353.288 1855.09 345.241 L 1815.93 285.683 C 1815.44 327.959 1815.75 371.513 1815.93 413.798 C 1804.12 412.632 1784.93 413.397 1772.18 413.261 C 1773.4 363.286 1772.15 308.805 1772.31 258.4 L 1772.17 209.22 L 1815.32 209.245 C 1826.5 226.316 1837.58 243.452 1848.56 260.651 L 1877.12 305.449 L 1894.05 278.576 C 1908.88 255.709 1923.47 232.216 1938.06 209.165 z"/>
<path transform="translate(0,0)" fill="rgb(93,177,2)" d="M 1938.06 209.165 L 1981.03 209.15 C 1981.25 228.907 1981.21 248.666 1980.91 268.422 C 1979.06 264.026 1979.44 260.28 1979.49 255.531 C 1969.92 271.771 1970.83 266.74 1953.18 267.328 C 1939.63 267.779 1925.32 268.289 1911.86 270.094 C 1906.04 270.881 1898.47 281.892 1894.67 281.236 L 1894.05 278.576 C 1908.88 255.709 1923.47 232.216 1938.06 209.165 z"/>
<path transform="translate(0,0)" fill="rgb(93,177,2)" d="M 1772.17 209.22 L 1815.32 209.245 C 1826.5 226.316 1837.58 243.452 1848.56 260.651 L 1847.92 260.77 C 1841.81 261.86 1775.71 267.003 1774.47 266.512 C 1773.01 263.475 1772.86 261.746 1772.31 258.4 L 1772.17 209.22 z"/>
<path transform="translate(0,0)" fill="url(#Gradient4)" d="M 796.499 209.1 C 810.102 209.103 824.018 208.95 837.586 209.433 C 874.696 252.169 909.888 297.807 947.19 340.123 C 946.565 296.956 947.119 252.435 947.109 209.159 L 991.032 209.173 L 991.029 412.895 C 987.745 413.972 956.138 413.39 950.512 413.331 C 943.363 405.883 935.574 396.014 928.92 387.995 C 900.19 353.377 869.504 320.011 840.906 285.34 L 840.944 413.571 C 826.298 413.161 811.193 413.417 796.508 413.486 C 797.802 346.936 796.799 275.94 796.499 209.1 z"/>
<path transform="translate(0,0)" fill="url(#Gradient3)" d="M 1596.73 209.319 L 1639.35 209.129 C 1667.04 268.742 1693.27 329.295 1720.43 389.171 C 1723.96 396.95 1727.61 405.291 1730.48 413.315 C 1714.97 413.223 1699.46 413.329 1683.95 413.634 L 1665.59 372.216 L 1642.25 372.179 L 1570.81 372.303 C 1565.4 385.976 1559.15 399.87 1553.28 413.396 L 1506.74 413.268 C 1511.72 399.563 1520.07 381.599 1526.03 367.941 L 1563.57 282.99 L 1584.97 234.694 C 1587.72 228.496 1593.54 214.505 1596.73 209.319 z M 1586.1 335.486 L 1617.75 335.277 C 1628.39 335.328 1639.26 335.496 1649.86 335.108 L 1627.55 285.49 C 1625.29 280.464 1619.59 266.788 1617.24 262.62 C 1607.2 286.208 1596.66 312.223 1586.1 335.486 z"/>
<path transform="translate(0,0)" fill="url(#Gradient2)" d="M 473.966 112.731 C 494.336 112.78 554.472 111.336 571.109 115.192 C 586.287 118.614 600.269 126.046 611.596 136.712 C 641.894 165.33 641.045 195.556 640.587 233.43 C 640.354 252.624 640.11 274.518 640.61 293.643 C 640.572 294.848 640.238 295.247 639.668 296.291 C 635.886 294.941 627.186 285.291 622.677 281.942 C 612.895 274.679 604.158 269.977 592.745 265.726 C 556.19 252.112 524.298 266.745 493.116 235.553 C 485.364 227.916 479.724 218.4 476.748 207.933 C 472.374 192.306 473.964 133.18 473.966 112.731 z"/>
<path transform="translate(0,0)" fill="rgb(37,56,254)" d="M 1048.42 209.095 L 1093.96 209.12 L 1093.91 289.746 C 1093.84 312.162 1089.67 345.067 1106.15 361.95 C 1121.65 377.826 1153.98 378.687 1172.28 367.569 C 1198.15 351.857 1193.09 315.286 1193.06 289.243 L 1193.05 209.319 C 1206.54 208.813 1223.52 209.214 1237.25 209.201 C 1236.96 225.745 1237.17 242.947 1237.16 259.543 C 1236.64 301.874 1245.05 360.274 1213.35 392.248 C 1179.69 426.187 1106.18 425.881 1072.37 392.224 C 1062.39 382.095 1055.3 369.474 1051.85 355.676 C 1047.22 337.56 1048.42 307.516 1048.44 288.082 L 1048.42 209.095 z"/>
<path transform="translate(0,0)" fill="url(#Gradient1)" d="M 1454.37 209.262 C 1470.43 208.915 1487.36 209.199 1503.5 209.244 C 1498.36 221.648 1493.05 233.984 1487.59 246.248 C 1464.7 300.515 1438.1 359.248 1416.74 413.469 C 1400.82 413.137 1383.85 413.413 1367.86 413.429 C 1360.35 390.6 1344.83 356.715 1335.02 333.713 L 1282.26 209.436 C 1297.96 208.739 1317.25 209.181 1333.2 209.179 C 1338.36 221.21 1343.11 233.798 1347.94 245.989 C 1362.84 283.66 1379.33 321.252 1392.85 359.424 C 1412.96 309.21 1433.47 259.154 1454.37 209.262 z"/>
<path transform="translate(0,0)" fill="rgb(50,62,81)" d="M 1320.37 482.597 C 1336.75 478.342 1353.5 488.069 1357.92 504.401 C 1362.34 520.734 1352.78 537.579 1336.49 542.162 C 1325.81 545.169 1314.33 542.207 1306.44 534.406 C 1298.55 526.605 1295.45 515.166 1298.34 504.449 C 1301.22 493.732 1309.63 485.388 1320.37 482.597 z M 1332.91 530.314 C 1339.37 528.589 1344.4 523.517 1346.07 517.043 C 1347.73 510.57 1345.79 503.699 1340.97 499.066 C 1336.15 494.433 1329.2 492.757 1322.8 494.681 C 1313.11 497.592 1307.55 507.741 1310.31 517.475 C 1313.07 527.209 1323.13 532.926 1332.91 530.314 z"/>
<path transform="translate(0,0)" fill="rgb(50,62,81)" d="M 1090.85 482.617 L 1100.68 482.455 C 1108.34 494.07 1117.3 506.221 1125.39 517.638 C 1125.82 506.253 1125.61 494.016 1125.61 482.56 L 1138.25 482.477 C 1138.15 490.744 1139.62 537.961 1137.06 541.432 C 1126.05 543.243 1125.81 538.464 1119.89 530.265 C 1115.78 524.57 1111.84 518.8 1107.68 513.13 L 1104.62 508.894 L 1103.35 508.901 C 1103.18 510.84 1102.99 512.218 1103.21 514.185 C 1102.84 522.859 1103.07 533.441 1103.03 542.265 L 1090.82 542.24 L 1090.85 482.617 z"/>
<path transform="translate(0,0)" fill="rgb(50,62,81)" d="M 1758.07 482.772 L 1770.89 482.17 L 1770.86 542.165 L 1758.03 542.294 L 1758.05 518.142 L 1736.99 518.245 L 1737.02 542.282 L 1724.27 542.286 C 1724.94 524.106 1723.32 501.501 1724.71 483.937 C 1727.06 481.989 1731.47 482.533 1734.73 482.551 L 1735.64 482.46 L 1736.79 483.487 C 1737.56 489.088 1737.07 500.149 1736.97 506.191 L 1758.05 506.224 L 1758.07 482.772 z"/>
<path transform="translate(0,0)" fill="rgb(50,62,81)" d="M 1531.87 482.528 C 1538.09 482.253 1545.76 482.495 1552.09 482.522 L 1552.07 494.488 L 1527.03 494.481 L 1527.11 506.049 L 1550.01 506.152 L 1549.99 518.09 L 1527.01 518.059 C 1526.9 524.85 1524.62 529.414 1531.75 530.292 L 1552.88 530.214 L 1552.87 542.212 L 1514.13 542.184 C 1515.53 525.465 1514.83 500.022 1514.81 482.61 L 1531.87 482.528 z"/>
<path transform="translate(0,0)" fill="rgb(50,62,81)" d="M 1634.27 482.16 C 1650.47 480.331 1656.8 483.095 1667.37 495.125 L 1656.35 501.507 C 1639.1 479.768 1614.11 504.228 1628.02 525.352 C 1634.55 535.263 1646.51 531.784 1654.8 525.965 C 1655.26 524.875 1655.51 524.893 1656.51 524.098 C 1659.48 524.46 1664.5 528.149 1667.26 529.923 C 1662.9 535.231 1659.24 538.815 1652.8 541.385 C 1645.37 544.421 1637.03 544.331 1629.67 541.136 C 1621.96 537.772 1615.95 531.42 1613.02 523.539 C 1610.06 515.539 1610.36 506.693 1613.87 498.916 C 1618.22 489.532 1625.07 485.561 1634.27 482.16 z"/>
<path transform="translate(0,0)" fill="rgb(37,56,254)" d="M 796.726 509.059 L 894.073 508.94 C 910.367 508.893 934.446 508.127 950.214 509.269 C 951.699 511.154 951.239 516.119 951.226 518.775 C 900.846 518.696 847.873 519.616 797.71 518.62 C 796.117 516.427 796.666 511.983 796.726 509.059 z"/>
<path transform="translate(0,0)" fill="rgb(93,177,2)" d="M 1826.92 508.997 L 1924.05 509.034 C 1941.96 509.018 1962.68 508.465 1980.2 509.347 C 1981.59 511.586 1981.09 516.027 1981.03 518.859 L 1880.57 518.872 C 1866.33 518.884 1840.86 519.609 1827.75 518.483 C 1826.36 515.93 1826.84 512.023 1826.92 508.997 z"/>
<path transform="translate(0,0)" fill="rgb(50,62,81)" d="M 1227.95 482.493 L 1238.92 482.54 L 1238.92 494.486 C 1231.21 494.328 1222.4 494.655 1214.6 494.783 L 1214.72 507.431 L 1237.94 507.575 L 1237.98 519.465 L 1218.25 519.453 L 1216.13 519.711 C 1213.44 523.049 1214.53 537.122 1214.62 542.186 L 1202.01 542.494 L 1201.98 482.652 L 1227.95 482.493 z"/>
<path transform="translate(0,0)" fill="rgb(50,62,81)" d="M 1444.5 482.483 L 1455.79 482.198 L 1455.85 494.566 L 1439.52 494.753 C 1440.01 510.356 1439.7 526.625 1439.62 542.28 C 1435.11 542.352 1431.54 542.53 1427.05 541.835 L 1427.02 494.762 L 1411.34 494.557 L 1411.22 482.574 L 1444.5 482.483 z"/>
<path transform="translate(0,0)" fill="rgb(50,62,81)" d="M 1016.4 482.481 L 1027.21 482.327 C 1027.24 500.539 1027.94 524.496 1026.9 542.255 L 1014.95 542.35 C 1014.93 534.861 1013.9 484.705 1016.4 482.481 z"/>
<path transform="translate(0,0)" fill="rgb(0,0,0)" fill-opacity="0.0117647" d="M 1103.21 514.185 C 1102.99 512.218 1103.18 510.84 1103.35 508.901 L 1104.62 508.894 L 1107.68 513.13 L 1107.38 515.48 L 1105.79 516.297 L 1106.06 518.623 L 1105.33 518.204 L 1104.51 514.797 L 1103.21 514.185 z"/>
</svg>